<svg width="49" height="48" viewBox="0 0 49 48" fill="none" xmlns="http://www.w3.org/2000/svg">
<g filter="url(#filter0_d_66_419)">
<rect x="11" y="6.5" width="27" height="27" rx="3.5" fill="white" stroke="#BEBEBE"/>
<mask id="mask0_66_419" style="mask-type:alpha" maskUnits="userSpaceOnUse" x="12" y="8" width="25" height="24">
<rect x="12.5" y="8" width="24" height="24" rx="4" fill="#D9D9D9"/>
</mask>
<g mask="url(#mask0_66_419)">
<mask id="mask1_66_419" style="mask-type:alpha" maskUnits="userSpaceOnUse" x="12" y="8" width="25" height="24">
<rect x="12.5" y="8" width="24" height="24" rx="4" fill="#006F45"/>
</mask>
<g mask="url(#mask1_66_419)">
<path d="M20.975 22.475C22.1486 23.6486 24.0514 23.6486 25.225 22.475L29.45 18.25C29.8366 17.8634 29.8366 17.2366 29.45 16.85C29.0634 16.4634 28.4366 16.4634 28.05 16.85L24.525 20.375C23.738 21.162 22.462 21.162 21.675 20.375L20.95 19.65C20.5634 19.2634 19.9366 19.2634 19.55 19.65C19.1634 20.0366 19.1634 20.6634 19.55 21.05L20.975 22.475ZM24.5 30C23.1167 30 21.8167 29.7375 20.6 29.2125C19.3833 28.6875 18.325 27.975 17.425 27.075C16.525 26.175 15.8125 25.1167 15.2875 23.9C14.7625 22.6833 14.5 21.3833 14.5 20C14.5 18.6167 14.7625 17.3167 15.2875 16.1C15.8125 14.8833 16.525 13.825 17.425 12.925C18.325 12.025 19.3833 11.3125 20.6 10.7875C21.8167 10.2625 23.1167 10 24.5 10C25.8833 10 27.1833 10.2625 28.4 10.7875C29.6167 11.3125 30.675 12.025 31.575 12.925C32.475 13.825 33.1875 14.8833 33.7125 16.1C34.2375 17.3167 34.5 18.6167 34.5 20C34.5 21.3833 34.2375 22.6833 33.7125 23.9C33.1875 25.1167 32.475 26.175 31.575 27.075C30.675 27.975 29.6167 28.6875 28.4 29.2125C27.1833 29.7375 25.8833 30 24.5 30ZM24.5 28C26.7333 28 28.625 27.225 30.175 25.675C31.725 24.125 32.5 22.2333 32.5 20C32.5 17.7667 31.725 15.875 30.175 14.325C28.625 12.775 26.7333 12 24.5 12C22.2667 12 20.375 12.775 18.825 14.325C17.275 15.875 16.5 17.7667 16.5 20C16.5 22.2333 17.275 24.125 18.825 25.675C20.375 27.225 22.2667 28 24.5 28Z" fill="#006F45"/>
</g>
</g>
</g>
<defs>
<filter id="filter0_d_66_419" x="0.5" y="0" width="48" height="48" filterUnits="userSpaceOnUse" color-interpolation-filters="sRGB">
<feFlood flood-opacity="0" result="BackgroundImageFix"/>
<feColorMatrix in="SourceAlpha" type="matrix" values="0 0 0 0 0 0 0 0 0 0 0 0 0 0 0 0 0 0 127 0" result="hardAlpha"/>
<feOffset dy="4"/>
<feGaussianBlur stdDeviation="5"/>
<feComposite in2="hardAlpha" operator="out"/>
<feColorMatrix type="matrix" values="0 0 0 0 0 0 0 0 0 0 0 0 0 0 0 0 0 0 0.25 0"/>
<feBlend mode="normal" in2="BackgroundImageFix" result="effect1_dropShadow_66_419"/>
<feBlend mode="normal" in="SourceGraphic" in2="effect1_dropShadow_66_419" result="shape"/>
</filter>
</defs>
</svg>
