<svg width="48" height="48" viewBox="0 0 48 48" fill="none" xmlns="http://www.w3.org/2000/svg">
<g filter="url(#filter0_d_66_607)">
<rect x="10.5" y="6.5" width="27" height="27" rx="3.5" fill="white" stroke="#BEBEBE"/>
<path d="M17 29C16.45 29 15.9792 28.8042 15.5875 28.4125C15.1958 28.0208 15 27.55 15 27V13C15 12.45 15.1958 11.9792 15.5875 11.5875C15.9792 11.1958 16.45 11 17 11H31C31.55 11 32.0208 11.1958 32.4125 11.5875C32.8042 11.9792 33 12.45 33 13V27C33 27.55 32.8042 28.0208 32.4125 28.4125C32.0208 28.8042 31.55 29 31 29H17ZM17 23C17 25.2091 18.7909 27 21 27H27C29.2091 27 31 25.2091 31 23V17C31 14.7909 29.2091 13 27 13H21C18.7909 13 17 14.7909 17 17V23ZM20 24C20 24.5523 20.4477 25 21 25C21.5523 25 22 24.5523 22 24V23C22 21.8954 22.8954 21 24 21C25.1046 21 26 21.8954 26 23V24C26 24.5523 26.4477 25 27 25C27.5523 25 28 24.5523 28 24V16C28 15.4477 27.5523 15 27 15C26.4477 15 26 15.4477 26 16V17C26 18.1046 25.1046 19 24 19C22.8954 19 22 18.1046 22 17V16C22 15.4477 21.5523 15 21 15C20.4477 15 20 15.4477 20 16V24Z" fill="#EAD513"/>
<path d="M17 29C16.45 29 15.9792 28.8042 15.5875 28.4125C15.1958 28.0208 15 27.55 15 27V13C15 12.45 15.1958 11.9792 15.5875 11.5875C15.9792 11.1958 16.45 11 17 11H31C31.55 11 32.0208 11.1958 32.4125 11.5875C32.8042 11.9792 33 12.45 33 13V27C33 27.55 32.8042 28.0208 32.4125 28.4125C32.0208 28.8042 31.55 29 31 29H17ZM17 23C17 25.2091 18.7909 27 21 27H27C29.2091 27 31 25.2091 31 23V17C31 14.7909 29.2091 13 27 13H21C18.7909 13 17 14.7909 17 17V23ZM20 24C20 24.5523 20.4477 25 21 25C21.5523 25 22 24.5523 22 24V23C22 21.8954 22.8954 21 24 21C25.1046 21 26 21.8954 26 23V24C26 24.5523 26.4477 25 27 25C27.5523 25 28 24.5523 28 24V16C28 15.4477 27.5523 15 27 15C26.4477 15 26 15.4477 26 16V17C26 18.1046 25.1046 19 24 19C22.8954 19 22 18.1046 22 17V16C22 15.4477 21.5523 15 21 15C20.4477 15 20 15.4477 20 16V24Z" fill="#EAD513"/>
</g>
<defs>
<filter id="filter0_d_66_607" x="0" y="0" width="48" height="48" filterUnits="userSpaceOnUse" color-interpolation-filters="sRGB">
<feFlood flood-opacity="0" result="BackgroundImageFix"/>
<feColorMatrix in="SourceAlpha" type="matrix" values="0 0 0 0 0 0 0 0 0 0 0 0 0 0 0 0 0 0 127 0" result="hardAlpha"/>
<feOffset dy="4"/>
<feGaussianBlur stdDeviation="5"/>
<feComposite in2="hardAlpha" operator="out"/>
<feColorMatrix type="matrix" values="0 0 0 0 0 0 0 0 0 0 0 0 0 0 0 0 0 0 0.25 0"/>
<feBlend mode="normal" in2="BackgroundImageFix" result="effect1_dropShadow_66_607"/>
<feBlend mode="normal" in="SourceGraphic" in2="effect1_dropShadow_66_607" result="shape"/>
</filter>
</defs>
</svg>
