<svg width="18" height="18" viewBox="0 0 18 18" fill="none" xmlns="http://www.w3.org/2000/svg">
<path d="M8.99963 9.99998C8.78703 9.99998 8.60894 9.9281 8.46536 9.78435C8.32178 9.6406 8.24998 9.46249 8.24998 9.25V1.17309C8.24998 0.960595 8.32188 0.78247 8.46568 0.63872C8.6095 0.494971 8.7877 0.423096 9.00028 0.423096C9.21288 0.423096 9.39097 0.494971 9.53456 0.63872C9.67814 0.78247 9.74993 0.960595 9.74993 1.17309V9.25C9.74993 9.46249 9.67803 9.6406 9.53423 9.78435C9.39042 9.9281 9.21222 9.99998 8.99963 9.99998ZM9.00051 17.4999C7.82066 17.4999 6.71535 17.2769 5.68459 16.8307C4.65383 16.3845 3.75511 15.7781 2.98845 15.0115C2.2218 14.2448 1.6154 13.3462 1.16925 12.3157C0.723083 11.2852 0.5 10.18 0.5 8.99998C0.5 7.87563 0.713141 6.80288 1.13942 5.78171C1.56571 4.76056 2.17693 3.84422 2.9731 3.03269C3.11796 2.88397 3.29519 2.81122 3.50479 2.81444C3.71441 2.81764 3.89414 2.89416 4.04397 3.04399C4.1813 3.18132 4.24336 3.35185 4.23014 3.55556C4.21694 3.75928 4.13766 3.94139 3.99229 4.10189C3.34484 4.76472 2.85093 5.51689 2.51055 6.35838C2.17016 7.19988 1.99997 8.08041 1.99997 8.99998C1.99997 10.95 2.67914 12.6041 4.03747 13.9625C5.3958 15.3208 7.04996 16 8.99996 16C10.95 16 12.6041 15.3208 13.9624 13.9625C15.3208 12.6041 15.9999 10.95 15.9999 8.99998C15.9999 8.07818 15.8272 7.19197 15.4817 6.34133C15.1362 5.49069 14.6397 4.73395 13.9922 4.07114C13.8474 3.92242 13.7708 3.74736 13.7625 3.54596C13.7541 3.34458 13.8199 3.17466 13.9597 3.03619C14.1075 2.88514 14.2861 2.80962 14.4954 2.80962C14.7048 2.80962 14.882 2.88397 15.0268 3.03269C15.823 3.84422 16.4342 4.76056 16.8605 5.78171C17.2868 6.80288 17.4999 7.87563 17.4999 8.99998C17.4999 10.18 17.2768 11.2852 16.8307 12.3157C16.3845 13.3462 15.7781 14.2448 15.0115 15.0115C14.2448 15.7781 13.3463 16.3845 12.3159 16.8307C11.2855 17.2769 10.1804 17.4999 9.00051 17.4999Z" fill="#012347"/>
</svg>
