<svg width="18" height="18" viewBox="0 0 18 18" fill="none" xmlns="http://www.w3.org/2000/svg">
<path d="M6.99998 7.03845L8.3923 6.35C8.58973 6.2564 8.79229 6.2096 8.99998 6.2096C9.20766 6.2096 9.41022 6.2564 9.60765 6.35L11 7.03845V1.99997H6.99998V7.03845ZM4.74995 13.75C4.53713 13.75 4.35893 13.6782 4.21535 13.5346C4.07177 13.391 3.99998 13.2128 3.99998 13C3.99998 12.7872 4.07177 12.609 4.21535 12.4654C4.35893 12.3218 4.53713 12.25 4.74995 12.25H8.25C8.46282 12.25 8.64102 12.3218 8.7846 12.4654C8.92818 12.609 8.99998 12.7872 8.99998 13C8.99998 13.2128 8.92818 13.391 8.7846 13.5346C8.64102 13.6782 8.46282 13.75 8.25 13.75H4.74995ZM2.3077 17.5C1.80257 17.5 1.375 17.325 1.025 16.975C0.675 16.625 0.5 16.1974 0.5 15.6923V2.3077C0.5 1.80257 0.675 1.375 1.025 1.025C1.375 0.675 1.80257 0.5 2.3077 0.5H15.6923C16.1974 0.5 16.625 0.675 16.975 1.025C17.325 1.375 17.5 1.80257 17.5 2.3077V15.6923C17.5 16.1974 17.325 16.625 16.975 16.975C16.625 17.325 16.1974 17.5 15.6923 17.5H2.3077ZM2.3077 16H15.6923C15.7692 16 15.8397 15.9679 15.9038 15.9038C15.9679 15.8397 16 15.7692 16 15.6923V2.3077C16 2.23077 15.9679 2.16024 15.9038 2.09613C15.8397 2.03203 15.7692 1.99997 15.6923 1.99997H12.5V8.24998C12.5 8.53714 12.3801 8.75412 12.1403 8.9009C11.9006 9.0477 11.6525 9.057 11.3961 8.9288L8.99998 7.73072L6.60383 8.9288C6.34742 9.057 6.09936 9.0477 5.85962 8.9009C5.61987 8.75412 5.5 8.53714 5.5 8.24998V1.99997H2.3077C2.23077 1.99997 2.16024 2.03203 2.09612 2.09613C2.03202 2.16024 1.99997 2.23077 1.99997 2.3077V15.6923C1.99997 15.7692 2.03202 15.8397 2.09612 15.9038C2.16024 15.9679 2.23077 16 2.3077 16Z" fill="#012347"/>
</svg>
