<svg width="18" height="18" viewBox="0 0 18 18" fill="none" xmlns="http://www.w3.org/2000/svg">
<path d="M2.00001 15.0423C2.90001 14.159 3.94584 13.4631 5.13751 12.9548C6.32917 12.4465 7.61667 12.1923 9.00001 12.1923C10.3833 12.1923 11.6708 12.4465 12.8625 12.9548C14.0542 13.4631 15.1 14.159 16 15.0423V2.3077C16 2.23077 15.968 2.16024 15.9039 2.09613C15.8397 2.03203 15.7692 1.99998 15.6923 1.99998H2.30773C2.2308 1.99998 2.16027 2.03203 2.09616 2.09613C2.03206 2.16024 2.00001 2.23077 2.00001 2.3077V15.0423ZM9.00001 10.0385C9.90257 10.0385 10.6699 9.72243 11.3019 9.09038C11.934 8.45833 12.25 7.69102 12.25 6.78845C12.25 5.8859 11.934 5.1186 11.3019 4.48655C10.6699 3.8545 9.90257 3.53848 9.00001 3.53848C8.09744 3.53848 7.33014 3.8545 6.69811 4.48655C6.06606 5.1186 5.75003 5.8859 5.75003 6.78845C5.75003 7.69102 6.06606 8.45833 6.69811 9.09038C7.33014 9.72243 8.09744 10.0385 9.00001 10.0385ZM2.30773 17.5C1.8026 17.5 1.37503 17.325 1.02503 16.975C0.675031 16.625 0.500031 16.1974 0.500031 15.6923V2.3077C0.500031 1.80257 0.675031 1.375 1.02503 1.025C1.37503 0.675 1.8026 0.5 2.30773 0.5H15.6923C16.1974 0.5 16.625 0.675 16.975 1.025C17.325 1.375 17.5 1.80257 17.5 2.3077V15.6923C17.5 16.1974 17.325 16.625 16.975 16.975C16.625 17.325 16.1974 17.5 15.6923 17.5H2.30773ZM3.44228 16H14.5577V15.7885C13.768 15.0833 12.9016 14.5577 11.9587 14.2115C11.0157 13.8653 10.0295 13.6923 9.00001 13.6923C7.98334 13.6923 7.00192 13.8637 6.05576 14.2067C5.10959 14.5497 4.23843 15.0705 3.44228 15.7692V16ZM9.00001 8.53848C8.51924 8.53848 8.10737 8.367 7.76441 8.02405C7.42146 7.6811 7.24998 7.26923 7.24998 6.78845C7.24998 6.30768 7.42146 5.89583 7.76441 5.55288C8.10737 5.20993 8.51924 5.03845 9.00001 5.03845C9.48077 5.03845 9.89264 5.20993 10.2356 5.55288C10.5786 5.89583 10.75 6.30768 10.75 6.78845C10.75 7.26923 10.5786 7.6811 10.2356 8.02405C9.89264 8.367 9.48077 8.53848 9.00001 8.53848Z" fill="#012347"/>
</svg>
