<svg width="18" height="18" viewBox="0 0 18 18" fill="none" xmlns="http://www.w3.org/2000/svg">
<path d="M2 18C1.45 18 0.979167 17.8042 0.5875 17.4125C0.195833 17.0208 0 16.55 0 16V2C0 1.45 0.195833 0.979167 0.5875 0.5875C0.979167 0.195833 1.45 0 2 0H16C16.55 0 17.0208 0.195833 17.4125 0.5875C17.8042 0.979167 18 1.45 18 2V16C18 16.55 17.8042 17.0208 17.4125 17.4125C17.0208 17.8042 16.55 18 16 18H2ZM2 12C2 14.2091 3.79086 16 6 16H12C14.2091 16 16 14.2091 16 12V6C16 3.79086 14.2091 2 12 2H6C3.79086 2 2 3.79086 2 6V12ZM5 13C5 13.5523 5.44772 14 6 14C6.55228 14 7 13.5523 7 13V12C7 10.8954 7.89543 10 9 10C10.1046 10 11 10.8954 11 12V13C11 13.5523 11.4477 14 12 14C12.5523 14 13 13.5523 13 13V5C13 4.44772 12.5523 4 12 4C11.4477 4 11 4.44772 11 5V6C11 7.10457 10.1046 8 9 8C7.89543 8 7 7.10457 7 6V5C7 4.44772 6.55228 4 6 4C5.44772 4 5 4.44772 5 5V13Z" fill="#012347"/>
</svg>
