<svg width="20" height="12" viewBox="0 0 20 12" fill="none" xmlns="http://www.w3.org/2000/svg">
<path d="M2.10118 11.2988C1.71393 11.6861 1.08607 11.6861 0.698822 11.2988C0.312493 10.9125 0.311439 10.2865 0.696465 9.89883L5.39858 5.16495C6.50284 4.05322 8.3002 4.0502 9.4082 5.1582L9.89675 5.64675C10.7281 6.47814 12.0751 6.4814 12.9105 5.65403L15.2911 3.2963C15.7721 2.81995 15.4348 2 14.7578 2C14.3393 2 14 1.6607 14 1.24216V1C14 0.447715 14.4477 0 15 0H17C18.6569 0 20 1.34315 20 3V5C20 5.55228 19.5523 6 19 6H18.7615C18.3409 6 18 5.65905 18 5.23848C18 4.56003 17.1797 4.22027 16.7 4.7L13.3331 8.06691C12.2655 9.13452 10.5345 9.13452 9.4669 8.0669L9.4 8C8.29543 6.89543 6.50457 6.89543 5.4 8L2.10118 11.2988Z" fill="#012347"/>
</svg>
